<?xml version="1.0" encoding="UTF-8"?>
<svg width="343px" height="262px" viewBox="0 0 343 262" version="1.1" xmlns="http://www.w3.org/2000/svg" xmlns:xlink="http://www.w3.org/1999/xlink">
    <!-- Generator: Sketch 52.3 (67297) - http://www.bohemiancoding.com/sketch -->
    <title>Group</title>
    <desc>Created with Sketch.</desc>
    <g id="Page-1" stroke="none" stroke-width="1" fill="none" fill-rule="evenodd">
        <g id="Desktop-HD" transform="translate(-603.000000, -232.000000)" fill="#000000">
            <g id="Group" transform="translate(603.000000, 232.000000)">
                <path d="M149.677351,139.216102 C159.345178,143.373414 167.452881,151.659391 170.57755,161.929683 C173.340859,171.012244 171.895451,186.795916 166.347468,200.430419 C165.37376,202.823364 164.294928,205.123577 163.112176,207.322542 C175.452181,215.082906 190.443545,217.310475 202.315498,212.565898 C215.226416,207.406104 223.426503,198.104421 226.691569,186.483276 C229.499067,176.490722 228.296056,165.486342 223.932654,157.679267 C216.076406,143.622731 203.17822,135.962115 183.85389,132.864455 C175.5307,131.530261 167.483557,128.406677 160.730471,124.210487 C156.479632,128.630582 152.77147,133.625247 149.677351,139.216102 Z M165.421214,200.053519 C170.887892,186.61883 172.312113,171.066514 169.620848,162.220754 C166.57525,152.210353 158.638855,144.13002 149.196972,140.098128 C146.62989,144.888174 144.506325,150.107053 142.869687,155.767916 C137.471552,174.439187 143.578506,191.795718 157.749641,203.455211 C159.202762,204.650786 160.712917,205.760177 162.268195,206.780414 C163.419544,204.633884 164.470926,202.388908 165.421214,200.053519 Z M184.012167,131.87706 C203.616499,135.019604 216.78493,142.840727 224.805568,157.191392 C229.299661,165.232302 230.532501,176.509536 227.654293,186.753762 C224.306048,198.670959 215.889739,208.217911 202.686606,213.494489 C190.51584,218.358484 175.218523,216.097502 162.631007,208.201246 C156.469426,219.254502 147.61992,227.655307 136.241207,232.28084 C138.534031,234.519441 140.922187,236.664169 143.395352,238.692837 C171.022921,261.354966 204.991114,267.489629 240.374726,251.796306 C275.590268,236.177525 292.56547,210.762573 293.098947,180.710248 C293.526013,156.652328 282.529528,131.470514 268.464555,120.090512 C256.725168,110.592148 244.927121,104.875274 232.987721,102.264413 C223.574939,100.206062 214.639851,100.132388 205.050574,101.47263 C194.90744,102.890282 183.04011,107.162717 172.585605,114.250465 C168.562125,116.978228 164.837288,120.050304 161.445838,123.477219 C168.043866,127.541883 175.893753,130.575691 184.012167,131.87706 Z M161.787268,207.660843 C160.178057,206.608698 158.616208,205.463158 157.114287,204.227432 C142.645621,192.323142 136.395637,174.560106 141.909031,155.490176 C143.555206,149.796323 145.689098,144.542377 148.267143,139.716106 C143.20533,137.717633 137.750533,136.879195 132.408968,137.517558 C115.255996,139.567486 104.754753,150.671023 104.754753,169.839359 C104.754753,188.409583 116.877503,213.02178 135.464122,231.514924 C146.831058,227.007116 155.658225,218.679499 161.787268,207.660843 Z M103.754753,169.839359 C103.754753,150.150558 114.64747,138.633094 132.290304,136.524623 C137.841067,135.861259 143.503588,136.740774 148.747576,138.830956 C151.861028,133.185032 155.592008,128.136291 159.868455,123.664495 C152.361616,118.818055 146.564504,112.640049 143.948032,106.166148 C138.64279,93.0394643 141.157386,75.0855381 150.724971,65.098385 C161.053809,54.3165944 177.251368,51.0948978 196.536026,56.2566751 C209.344278,59.6849621 219.065198,57.9818223 225.768458,51.1819954 L226.480603,51.8840274 C219.496612,58.9686305 209.405676,60.7365982 196.277466,57.2226702 C177.321215,52.1487951 161.500893,55.2954591 151.447083,65.7901608 C142.166532,75.477693 139.710595,93.0127959 144.875173,105.791437 C147.430307,112.113567 153.156108,118.177777 160.578527,122.932368 C164.057645,119.395285 167.88536,116.228897 172.02445,113.422755 C182.612259,106.244632 194.624132,101.920158 204.912154,100.482256 C214.610624,99.1267532 223.661603,99.2013831 233.201349,101.287498 C245.294018,103.931875 257.234033,109.717541 269.093555,119.313107 C283.405445,130.892889 294.53117,156.370663 294.098789,180.727997 C293.558384,211.170604 276.350153,236.934443 240.780158,252.710431 C205.034599,268.564285 170.668702,262.357796 142.761147,239.466002 C140.15033,237.324421 137.633368,235.054737 135.222175,232.682382 C133.576837,233.31043 131.880079,233.860904 130.132362,234.330539 C110.863553,239.508325 87.9514001,229.552003 72.0352936,208.578377 C54.060353,184.891699 46.9761108,150.709781 54.4340067,111.285093 C61.9457944,71.575518 89.9688942,41.5058674 128.759034,26.6978758 C164.463222,13.067935 204.046555,14.8081578 229.442626,31.4907878 C260.190456,51.6889774 274.859398,60.2691228 288.0631,65.0311142 C303.001054,70.4185737 314.442687,69.6593299 326.466148,62.3836177 C337.770567,55.543017 342.89855,43.6498259 341.182062,30.8780418 C339.537725,18.6431097 331.825264,7.86473315 321.047305,3.4628835 L321.4254,2.5371165 C332.548819,7.08005662 340.482879,18.1681235 342.173151,30.7448425 C343.94072,43.8966998 338.642788,56.1840494 326.983865,63.2391696 C314.69125,70.6777541 302.935177,71.4578635 287.723834,65.9718048 C274.418204,61.1730523 259.711607,52.5708819 228.893591,32.3265871 C203.788363,15.8350116 164.538821,14.1094634 129.115677,27.6321166 C90.6330315,42.3227233 62.8597063,72.124358 55.4165807,111.470965 C48.0095661,150.626678 55.0341369,184.520678 72.831892,207.973868 C88.5187158,228.645354 111.030914,238.427879 129.872854,233.364798 C131.437577,232.944336 132.960712,232.457747 134.441924,231.90743 C115.856023,213.273388 103.754753,188.587651 103.754753,169.839359 Z" id="Path" fill-rule="nonzero"></path>
                <path d="M282.186914,10.6742492 C266.815405,25.6740503 279.33491,54.1068515 290.601249,57.7714245 C301.867588,61.4359974 307.981985,56.2918553 309.526305,50.3778726 C311.137582,44.2074775 309.575299,36.3320689 301.295571,32.5715185 C296.497656,30.3923646 285.244283,27.9119622 283.425401,22.9937205 C280.737046,15.7244343 286.705092,9.37539564 290.288597,6.92506451 C295.372532,3.44876757 306.368657,-0.45179023 321.203979,3.48706055 C321.342692,3.21612661 321.277954,3.04740296 321.435669,2.58776855 C316.751552,0.503935762 295.621582,-2.43554688 282.186914,10.6742492 Z" id="Path-2"></path>
                <path d="M226.889953,51 C222.987768,56.6739581 221.676984,62.013351 222.957602,67.0181787 C224.878527,74.5254202 234.29614,85.93618 227.670858,94 C226.799453,83.1221235 208.580428,57.3672988 200,57.3672988 C213.158979,58.6822079 222.122297,56.5597749 226.889953,51 Z" id="Path-3"></path>
                <path d="M148.854492,68.0610352 C144.694492,81.0854382 149.443934,88.4431925 163.10282,90.134298 C158.990662,96.5533773 153.678047,119.142056 187.630844,125.657735 C221.583642,132.173415 233.672363,153.822266 233.672363,172.757813 C233.672363,191.693359 216.107422,210.940918 197.144531,214.755371 C197.144531,214.755371 229.683105,206.183105 228.322266,172.757813 C226.910645,141.197754 195.019048,135.515589 187.630844,133.454267 C184.125112,132.476161 155.633853,130.718889 145.406738,107.986328 C139.070856,93.9030961 140.220107,80.5946651 148.854492,68.0610352 Z" id="Path-4"></path>
                <path d="M229.160156,100.918457 C242.498481,104.481073 251.895942,107.909133 257.352539,111.202637 C276.303832,122.641294 288.032353,140.712923 292.275143,162.467785 C298.350356,193.618381 288.377189,219.462452 262.355643,240 C279.743849,217.450638 285.594683,192.109094 279.908145,163.975369 C275.008618,139.735324 263.228516,121.128418 244.379395,107.979004 C240.634603,105.198405 235.561523,102.844889 229.160156,100.918457 Z" id="Path-8"></path>
                <path d="M145,138 C161.96875,142.947591 171.238281,153.87877 172.808594,170.793538 C174.378906,187.708305 168.815128,203.110459 156.117258,217 C162.52089,200.726954 164.880903,185.3248 163.197297,170.793538 C161.51369,156.262276 155.447925,145.331096 145,138 Z" id="Path-9"></path>
                <path d="M4,79.7879458 C71.0310706,78.2178923 105.39983,77.120499 107.106279,76.4957657 C109.665952,75.5586657 111.348677,75.0818956 112.298323,74.1622635 C113.24797,73.2426314 117.660165,76.3822245 120.569092,79.7879458 C123.47802,83.193667 129,90.4895861 129,93.8593441 C129,97.2291021 128.429094,100.785355 126.334076,100.785355 C124.239059,100.785355 124.245159,100.785355 119.217321,100.785355 C114.189482,100.785355 40.1302825,100.785355 34.5869506,100.785355 C31.6171696,100.785355 19.2399828,102.899253 7.8748419,93.8593441 C6.0231857,92.3865244 4.73157173,87.6960583 4,79.7879458 Z" id="E-1"></path>
                <path d="M3.72206909,125.047375 C5.18129533,126.879888 8.64978726,127.796145 14.1275449,127.796145 C22.3441813,127.796145 79.3046842,122.245379 89.487171,123.870281 C99.6696578,125.495182 101.389648,123.870281 104.679688,123.870281 C107.969727,123.870281 111.6875,122.223633 114.584072,120.836914 C117.480644,119.450195 119.951011,128.975649 120.594131,131.81543 C121.237251,134.655211 122.103868,137.628974 120.594131,142.134173 C119.084394,146.639373 117.174291,151.735678 114.584072,151.735678 C111.993852,151.735678 71.5923069,146.871209 49.7819593,150.085699 C27.9716118,153.300189 24.0586623,155.035635 16.3888557,153.336014 C12.888306,152.560296 6.8568239,146.943768 3.72206909,138.5 C2.7593103,135.906715 2.7593103,131.422507 3.72206909,125.047375 Z" id="E-2"></path>
                <path d="M0,171.26764 C30.1597284,171.242563 46.7213049,171.242563 49.6847294,171.26764 C107.410315,171.756115 107.275727,172.171284 108.229298,171.26764 C109.182869,170.363996 113.613299,173.449006 116.534249,176.795519 C119.455198,180.142031 125,187.31111 125,190.622284 C125,193.933458 124.426734,197.427885 122.323058,197.427885 C120.219383,197.427885 120.225508,197.427885 115.176891,197.427885 C110.128273,197.427885 38.514471,199.361465 32.9482295,199.361465 C29.9661749,199.361465 16.6761502,202.75975 5.26403914,193.877001 C3.40473037,192.429786 1.65005066,184.893333 0,171.26764 Z" id="E-3"></path>
            </g>
        </g>
    </g>
</svg>